<?xml version="1.0" encoding="utf-8"?>
<!-- Generator: Adobe Illustrator 16.0.0, SVG Export Plug-In . SVG Version: 6.00 Build 0)  -->
<!DOCTYPE svg PUBLIC "-//W3C//DTD SVG 1.1//EN" "http://www.w3.org/Graphics/SVG/1.1/DTD/svg11.dtd">
<svg version="1.1" xmlns="http://www.w3.org/2000/svg" xmlns:xlink="http://www.w3.org/1999/xlink" x="0px" y="0px" width="822px"
	 height="567px" viewBox="0 0 822 567" enable-background="new 0 0 822 567" xml:space="preserve">
<g id="COLOR">
	<g id="XMLID_5_">
		<g>
			<path fill="#474F56" d="M711.2,249.5c0,0-12.5,15.8-15.9,18.5c-3.3,2.7-19.3,10.7-19.3,10.7l-15.3,18.8l-10,25.2l-4-5.2L632,294
				c0,0-7.3-30-8.7-33.2c-1.3-3.2-14.7-25.4-18-30.8c-3.3-5.3-10.7-23.3-11.4-28.7c-0.7-5.3-1.9-26-0.6-28.2c1.3-2.2,0-25.1,0-25.1
				l-4-21.3L581.5,98l-1.2-0.1c0.7-1.8,1.2-2.9,1.2-2.9V67.3l-17.2-16.8l-11.6-26.2l0.2,0l50.9,22.8l35.7,50l33.6,58l37.2,92.7
				L711.2,249.5z"/>
			<path fill="#434B51" d="M711.2,249.5l52.2,86.2l19,56.3l10.3,63.7l-38.1,29.9l-26-36.3l-22-36.7l-8.7-38.2L684,354l-30-6
				l-3.3-25.3l10-25.2l15.3-18.8c0,0,16-8,19.3-10.7C698.7,265.3,711.2,249.5,711.2,249.5z"/>
			<path fill="#4B5359" d="M593.3,148c0,0,1.3,23,0,25.1c-1.3,2.2-0.1,22.9,0.6,28.2c0.7,5.3,8.1,23.3,11.4,28.7
				c3.3,5.3,16.7,27.5,18,30.8c1.3,3.2,8.7,33.2,8.7,33.2l14.7,23.5l4,5.2L654,348l-29.3,17.3c0,0-10.1,17.1-13.9,26.3
				c0,0-10.8-27-12.8-28.3c-2-1.3-10-11.3-12.7-15.3c-2.7-4-10-18-10-21.1c0-3.1-2.7-24.9-2.7-24.9s-6-31.3-8-34
				c-2-2.7-4-34.7-4.7-36.7s-18.7-32-18.7-32l-16.2-12l2.2-0.7L548,164c0,0,17.2-29.8,22.1-39.7c0.7-1.5,1.2-2.5,1.3-2.9
				c0.5-2.6,6.4-17.2,9-23.5l1.2,0.1l7.8,28.7L593.3,148z"/>
			<path fill="#444E51" d="M610.8,391.7c3.8-9.2,13.9-26.3,13.9-26.3L654,348l30,6l14,20.5l8.7,38.2l22,36.7l26,36.3L662,505.1
				L625.3,494l-36-8.3l16.4-18.3c0,0,1.6-34,0.3-39.3s2.7-26,3.3-31.9C609.4,395.1,610,393.5,610.8,391.7z"/>
			<path fill="#49515B" d="M541.3,199.3c0,0,18,30,18.7,32s2.6,34,4.7,36.7c2,2.7,8,34,8,34s2.7,21.8,2.7,24.9
				c0,3.1,7.3,17.1,10,21.1c2.7,4,10.7,14,12.7,15.3c2,1.3,12.8,28.3,12.8,28.3c-0.8,1.9-1.3,3.5-1.4,4.5
				c-0.7,5.9-4.7,26.5-3.3,31.9s-0.3,39.3-0.3,39.3l-16.4,18.3L568,468l-7.3-18.7l-14-16.7l-8-18.7l-7.3-22.3c0,0-15.3-19-18.6-23
				c-3.3-4-11.4-12.7-11.4-14.7s2-23.3,0-27.1s-8.7-30.2-12-33.5c-3.3-3.3-4-22.3-4-22.3l4-16.3l-8-16c0,0,11.3-20.7,12.7-22.7
				c1.3-2,7.1-20.7,7.3-21.3l0,0l23.8-7.3L541.3,199.3z"/>
			<path fill="#575E63" d="M571.3,121.3c-0.1,0.4-0.5,1.5-1.3,2.9l0,0l-20,4.4l-18,14.6l-30.7,7.3H476l-18.7,10.3L436,150l-10-10
				c2-0.7,33.3-20,33.3-20L470,98l11.3-23.3L490,52l6.6-14.7l56.1-12.9l11.6,26.2l17.2,16.8V95c0,0-0.5,1.1-1.2,2.9
				C577.8,104.1,571.8,118.7,571.3,121.3z"/>
			<path fill="#48525B" d="M548,476.5l16.7,22.3l-72.3,18.9l-92.8-22.8l-21-15.6c0,0-4.5-22-4.5-24.7c0-2.7,2.7-30,3-34.7
				c0.3-4.7-19-23.9-19-23.9l-6-21.6l14-21.5l12.5-11.8l3.5-3.2l20-11l9-20.8l16-8.8h17l11.5,27.5v30l27.5,18l10,14l10,25l10,23
				l18,29L548,476.5z"/>
			<path fill="#49515B" d="M489.3,293.3c3.3,3.3,10,29.8,12,33.5s0,25.1,0,27.1s8.2,10.7,11.4,14.7c3.3,4,18.6,23,18.6,23l7.3,22.3
				l8,18.7l14,16.7L568,468l21.4,17.7l36,8.3l36.7,11.1l-97.4-6.3L548,476.5L531,464l-18-29l-10-23l-10-25l-10-14l-27.5-18v-30
				L444,297.5l7.3-10.8L456,271l4-25.7l21.3-6.7l8,16l-4,16.3C485.3,271,486,290,489.3,293.3z"/>
			<path fill="#5F666D" d="M501.3,194.7c-0.2,0.6-6,19.3-7.3,21.3c-1.3,2-12.7,22.7-12.7,22.7l-21.3,6.7l-4,25.7l-4.7,15.7
				l-7.3,10.8h-17c0,0-25.7-8.8-27.7-8c-2,0.8-19.3-2.2-20.8,0s-13.9,5.2-16.5,8s-23.8,9.2-23.8,9.2l-32.2-3.3l-22,4.7l-37,9.5h-27
				l-0.1-0.2l28.7-19.8l34-29.5l35.3-8c0,0,34-7.3,37.3-9.3c3.3-2,23.2-28.7,23.2-28.7l25.5-15.4l46-4.1h31L501.3,194.7z"/>
			<path fill="#6E767F" d="M496.6,37.3L490,52l-8.7,22.7L470,98l-10.7,22c0,0-31.3,19.3-33.3,20l-7.3-16l8.3-15.7l13.7-15.6
				l9.2-18.1L496.6,37.3z"/>
			<path fill="#666D75" d="M457.3,160.8l18.7-10.3h25.3l30.7-7.3l18-14.6l20-4.4l0,0C565.2,134.2,548,164,548,164l-20.7,22.7
				l-2.2,0.7l-23.8,7.3l0,0l-20.3,7.8h-31l-46,4.1l16.7-11.9c0,0,26-18.7,28.7-21.3C452,170.7,457.3,160.8,457.3,160.8z"/>
			<path fill="#6C737A" d="M449.8,74.6l-9.2,18.1L427,108.3l-8.3,15.7l7.3,16c-2,0.7-47.5,8.7-47.5,8.7l-33.9,12.2l-46.5,18.4
				l-0.1-0.1l0,0.1l0,0l-40.6-5.2l56.5-40.6L379.6,97L449.8,74.6z"/>
			<path fill="#5A6168" d="M220,317.5h27l37-9.5l22-4.7l32.2,3.3c0,0,21.1-6.3,23.8-9.2s15.1-5.8,16.5-8s18.8,0.8,20.8,0
				c2-0.8,27.7,8,27.7,8l-16,8.8l-9,20.8l-20,11l-3.5,3.2L358,344l-23,8.7l-29.7,16.7l-51.3,5.2l-39,8h-51l-24.6,6l-45,7.6l0,0
				l80.8-69.1l0.1-0.1l44.6-9.5L220,317.5z"/>
			<polygon fill="#565E66" points="378.5,341.2 366,353 352,374.5 335,374.5 308.7,387.3 288,398.2 274.7,414.7 245.3,430.7 
				224.7,441.3 194.7,469.3 182.1,504.7 97.8,493.8 21.9,480.8 92,398.1 94.4,396.1 94.4,396.1 139.4,388.5 164,382.5 215,382.5 
				254,374.5 305.3,369.3 335,352.7 358,344 			"/>
			<path fill="#4E565E" d="M358,396.1c0,0,19.3,19.2,19,23.9c-0.3,4.7-3,32-3,34.7c0,2.7,4.5,24.7,4.5,24.7l21,15.6l-142.2-9.3
				c0,0,30.5-60.4,33.5-67.4s25.1-15.9,25.1-15.9l19.1-27.9h17L358,396.1z"/>
			<path fill="#51565B" d="M378.5,222c0,0-19.9,26.7-23.2,28.7l-12-15.3l-12-8.7l-14-20.4l-14-19l-5.2-8.1l46.5-18.4l33.9-12.2
				c0,0,45.5-8,47.5-8.7l10,10l21.3,10.8c0,0-5.3,9.8-8,12.5c-2.7,2.7-28.7,21.3-28.7,21.3L404,206.6L378.5,222z"/>
			<path fill="#51575E" d="M343.3,235.3l12,15.3c-3.3,2-37.3,9.3-37.3,9.3l-35.3,8l4.9-23v-20.3L276.8,212l15.9-14l5.3-18.6l0.1,0
				l5.2,8.1l14,19l14,20.4L343.3,235.3z"/>
			<path fill="#585F66" d="M335,374.5l-19.1,27.9c0,0-22.1,8.9-25.1,15.9s-33.5,67.4-33.5,67.4l-75.3,19l12.5-35.3l30-28l20.7-10.7
				l29.3-16l13.3-16.5l20.7-10.8L335,374.5z"/>
			<polygon fill="#6C747A" points="298,179.3 292.7,197.9 276.8,212 287.5,224.7 287.5,245 282.6,268 248.6,297.5 219.9,317.3 
				175.3,326.8 201.5,277.7 227.8,226.5 257.4,174.1 298,179.3 			"/>
		</g>
		<g>
			<polyline fill="none" stroke="#000000" stroke-width="0.25" stroke-miterlimit="10" points="711.2,249.5 763.5,335.7 782.4,392 
				792.8,455.7 754.7,485.7 			"/>
			<polyline fill="none" stroke="#000000" stroke-width="0.25" stroke-miterlimit="10" points="654,348 684,354 698,374.5 
				706.7,412.7 728.7,449.3 754.7,485.7 662,505.1 			"/>
			<line fill="none" stroke="#000000" stroke-width="0.25" stroke-miterlimit="10" x1="257.4" y1="485.7" x2="182.1" y2="504.7"/>
			<path fill="none" stroke="#000000" stroke-width="0.25" stroke-miterlimit="10" d="M399.6,494.9l-142.2-9.3
				c0,0,30.5-60.4,33.5-67.4s25.1-15.9,25.1-15.9l19.1-27.9"/>
			<path fill="none" stroke="#000000" stroke-width="0.25" stroke-miterlimit="10" d="M564.7,498.8l-72.3,18.9l-92.8-22.8l-21-15.6
				c0,0-4.5-22-4.5-24.7c0-2.7,2.7-30,3-34.7c0.3-4.7-19-23.9-19-23.9l-6-21.6"/>
			<polyline fill="none" stroke="#000000" stroke-width="0.25" stroke-miterlimit="10" points="589.3,485.7 625.3,494 662,505.1 
				564.7,498.8 548,476.5 531,464 513,435 503,412 493,387 483,373 455.5,355 455.5,325 444,297.5 			"/>
			<path fill="none" stroke="#000000" stroke-width="0.25" stroke-miterlimit="10" d="M610.8,391.7c-0.8,1.9-1.3,3.5-1.4,4.5
				c-0.7,5.9-4.7,26.5-3.3,31.9s-0.3,39.3-0.3,39.3l-16.4,18.3L568,468l-7.3-18.7l-14-16.7l-8-18.7l-7.3-22.3c0,0-15.3-19-18.6-23
				c-3.3-4-11.4-12.7-11.4-14.7s2-23.3,0-27.1s-8.7-30.2-12-33.5c-3.3-3.3-4-22.3-4-22.3l4-16.3l-8-16"/>
			<path fill="none" stroke="#000000" stroke-width="0.25" stroke-miterlimit="10" d="M501.3,194.7c-0.2,0.6-6,19.3-7.3,21.3
				c-1.3,2-12.7,22.7-12.7,22.7l-21.3,6.7l-4,25.7l-4.7,15.7l-7.3,10.8h-17"/>
			<polyline fill="none" stroke="#000000" stroke-width="0.25" stroke-miterlimit="10" points="525.2,187.3 501.3,194.7 
				501.3,194.7 481,202.5 450,202.5 404,206.6 			"/>
			<path fill="none" stroke="#000000" stroke-width="0.25" stroke-miterlimit="10" d="M650.7,322.7L654,348l-29.3,17.3
				c0,0-10.1,17.1-13.9,26.3c0,0-10.8-27-12.8-28.3c-2-1.3-10-11.3-12.7-15.3c-2.7-4-10-18-10-21.1c0-3.1-2.7-24.9-2.7-24.9
				s-6-31.3-8-34c-2-2.7-4-34.7-4.7-36.7s-18.7-32-18.7-32l-16.2-12l2.2-0.7L548,164c0,0,17.2-29.8,22.1-39.7"/>
			<path fill="none" stroke="#000000" stroke-width="0.25" stroke-miterlimit="10" d="M552.7,24.4l0.2,0l50.9,22.8l35.7,50l33.6,58
				l37.2,92.7l1,1.7c0,0-12.5,15.8-15.9,18.5c-3.3,2.7-19.3,10.7-19.3,10.7l-15.3,18.8l-10,25.2l-4-5.2L632,294c0,0-7.3-30-8.7-33.2
				c-1.3-3.2-14.7-25.4-18-30.8c-3.3-5.3-10.7-23.3-11.4-28.7c-0.7-5.3-1.9-26-0.6-28.2c1.3-2.2,0-25.1,0-25.1l-4-21.3L581.5,98
				l-1.2-0.1"/>
			<path fill="none" stroke="#000000" stroke-width="0.25" stroke-miterlimit="10" d="M496.6,37.3l56.1-12.9l11.6,26.2l17.2,16.8V95
				c0,0-0.5,1.1-1.2,2.9c-2.6,6.3-8.5,20.9-9,23.5c-0.1,0.4-0.5,1.5-1.3,2.9l0,0l-20,4.4l-18,14.6l-30.7,7.3H476l-18.7,10.3"/>
			<path fill="none" stroke="#000000" stroke-width="0.25" stroke-miterlimit="10" d="M449.8,74.6l46.8-37.3L490,52l-8.7,22.7
				L470,98l-10.7,22c0,0-31.3,19.3-33.3,20"/>
			<polyline fill="none" stroke="#000000" stroke-width="0.25" stroke-miterlimit="10" points="257.4,174.1 313.9,133.5 379.6,97 
				449.8,74.6 440.7,92.7 427,108.3 418.7,124 426,140 			"/>
			<polyline fill="none" stroke="#000000" stroke-width="0.25" stroke-miterlimit="10" points="298.1,179.3 298.1,179.2 298,179.3 
							"/>
			<path fill="none" stroke="#000000" stroke-width="0.25" stroke-miterlimit="10" d="M298.1,179.3l46.5-18.4l33.9-12.2
				c0,0,45.5-8,47.5-8.7l10,10l21.3,10.8c0,0-5.3,9.8-8,12.5c-2.7,2.7-28.7,21.3-28.7,21.3L404,206.6L378.5,222
				c0,0-19.9,26.7-23.2,28.7"/>
			<path fill="none" stroke="#000000" stroke-width="0.25" stroke-miterlimit="10" d="M298,179.3l0.1,0l5.2,8.1l14,19l14,20.4
				l12,8.7l12,15.3c-3.3,2-37.3,9.3-37.3,9.3l-35.3,8"/>
			<polyline fill="none" stroke="#000000" stroke-width="0.25" stroke-miterlimit="10" points="175.3,326.8 201.5,277.7 
				227.8,226.5 257.4,174.1 298,179.3 298,179.3 292.7,197.9 276.8,212 287.5,224.7 287.5,245 282.6,268 248.6,297.5 219.9,317.3 
							"/>
			<polyline fill="none" stroke="#000000" stroke-width="0.25" stroke-miterlimit="10" points="378.5,341.2 366,353 352,374.5 
				335,374.5 308.7,387.3 288,398.2 274.7,414.7 245.3,430.7 224.7,441.3 194.7,469.3 182.1,504.7 97.8,493.8 21.9,480.8 92,398.1 
				94.4,396.1 			"/>
			<path fill="none" stroke="#000000" stroke-width="0.25" stroke-miterlimit="10" d="M427,297.5l-16,8.8l-9,20.8l-20,11l-3.5,3.2
				L358,344l-23,8.7l-29.7,16.7l-51.3,5.2l-39,8h-51l-24.6,6l-45,7.6l0,0l80.8-69.1l0.1-0.1l44.6-9.5l0.1,0.2h27l37-9.5l22-4.7
				l32.2,3.3c0,0,21.1-6.3,23.8-9.2s15.1-5.8,16.5-8s18.8,0.8,20.8,0C401.3,288.7,427,297.5,427,297.5z"/>
		</g>
	</g>
</g>
<g id="www.abc-color.com">
	<polygon points="137.8,533.6 140.4,533.6 140.4,542.2 138.7,542.2 138.7,535.4 137,542.2 135.4,542.2 133.7,535.4 133.7,542.2 
		132.1,542.2 132.1,533.6 134.7,533.6 136.2,539.4 	"/>
	<path d="M129.6,534.6c0.8,0.8,1.1,1.9,1.1,3.3c0,1.4-0.4,2.5-1.1,3.3c-0.8,0.8-1.5,1.2-2.8,1.2v-1.5c0.7,0,1-0.2,1.4-0.7
		c0.4-0.5,0.7-1.3,0.7-2.2c0-1-0.2-1.7-0.6-2.2c-0.4-0.5-1-0.7-1.7-0.7c-0.7,0-1.3,0.2-1.7,0.7c-0.4,0.5-0.6,1.2-0.6,2.2
		c0,1,0.2,1.7,0.7,2.2c0.4,0.5,0.8,0.8,1.5,0.8v1.5c-1.3,0-2.1-0.4-2.8-1.2c-0.8-0.8-1.1-1.9-1.1-3.2c0-0.9,0.1-1.6,0.4-2.2
		c0.2-0.4,0.5-0.8,0.8-1.2c0.3-0.3,0.7-0.6,1.1-0.8c0.5-0.2,1.2-0.3,1.9-0.3C127.8,533.4,128.8,533.8,129.6,534.6z"/>
	<path d="M120,541.6c-0.6,0.5-1.4,0.7-2.3,0.7c-1.1,0-2.1-0.4-2.8-1.2c-0.7-0.8-1.1-1.9-1.1-3.2c0-1.4,0.4-2.5,1.1-3.3
		c0.7-0.8,1.7-1.2,2.9-1.2c1,0,1.9,0.3,2.6,0.9c0.4,0.4,0.7,0.9,0.9,1.6l-1.7,0.4c-0.1-0.5-0.3-0.8-0.6-1.1
		c-0.3-0.3-0.7-0.4-1.2-0.4c-0.6,0-1.2,0.2-1.6,0.7c-0.4,0.5-0.6,1.2-0.6,2.2c0,1.1,0.2,1.9,0.6,2.3s0.9,0.7,1.5,0.7
		c0.5,0,0.9-0.1,1.2-0.4c0.3-0.3,0.6-0.8,0.7-1.4l1.7,0.5C121,540.5,120.6,541.2,120,541.6z"/>
	<rect x="110.7" y="540.5" width="1.6" height="1.7"/>
	<path d="M105.7,533.6c0.9,0,1.6,0.1,2,0.2c0.4,0.2,0.8,0.4,1,0.8c0.3,0.4,0.4,0.8,0.4,1.4c0,0.6-0.2,1.2-0.6,1.6
		c-0.4,0.4-0.9,0.7-1.7,0.8c0.4,0.2,0.7,0.5,0.9,0.7c0.3,0.3,0.6,0.7,1,1.4l1,1.7h-2.1l-1.3-1.9c-0.4-0.7-0.8-1.1-0.9-1.3
		c-0.2-0.2-0.3-0.3-0.5-0.4c-0.2-0.1-0.6-0.1-1-0.1v-1.4h1c0.8,0,1.4,0,1.6-0.1c0.2-0.1,0.4-0.2,0.5-0.4c0.1-0.2,0.2-0.4,0.2-0.6
		c0-0.3-0.1-0.5-0.2-0.7c-0.1-0.2-0.4-0.3-0.6-0.3c-0.1,0-0.6,0-1.3,0h-1.4v7.1h-1.7v-8.6H105.7z"/>
	<path d="M99.6,534.6c0.8,0.8,1.1,1.9,1.1,3.3c0,1.4-0.4,2.5-1.1,3.3c-0.8,0.8-1.5,1.2-2.8,1.2v-1.5c0.7,0,1-0.2,1.4-0.7
		c0.4-0.5,0.7-1.3,0.7-2.2c0-1-0.2-1.7-0.6-2.2c-0.4-0.5-1-0.7-1.7-0.7c-0.7,0-1.3,0.2-1.7,0.7c-0.4,0.5-0.6,1.2-0.6,2.2
		c0,1,0.2,1.7,0.7,2.2c0.4,0.5,0.8,0.8,1.5,0.8v1.5c-1.3,0-2.1-0.4-2.8-1.2c-0.8-0.8-1.1-1.9-1.1-3.2c0-0.9,0.1-1.6,0.4-2.2
		c0.2-0.4,0.5-0.8,0.8-1.2c0.3-0.3,0.7-0.6,1.1-0.8c0.5-0.2,1.2-0.3,1.9-0.3C97.8,533.4,98.8,533.8,99.6,534.6z"/>
	<polygon points="91.5,540.7 91.5,542.2 85.5,542.2 85.5,533.6 87.2,533.6 87.2,540.7 	"/>
	<path d="M79.8,542.3c-1.3,0-2.1-0.4-2.9-1.2c-0.8-0.8-1.1-1.9-1.1-3.2c0-0.9,0.1-1.6,0.4-2.2c0.2-0.4,0.5-0.8,0.8-1.2
		c0.3-0.3,0.7-0.6,1.1-0.8c0.5-0.2,1.2-0.3,1.9-0.3c1.3,0,2.3,0.4,3,1.2c0.8,0.8,1.1,1.9,1.1,3.3c0,1.4-0.4,2.5-1.1,3.3
		c-0.8,0.8-1.4,1.2-2.7,1.2v-1.5c0.7,0,0.9-0.2,1.4-0.7c0.4-0.5,0.7-1.3,0.7-2.2c0-1-0.2-1.7-0.7-2.2c-0.4-0.5-1-0.7-1.7-0.7
		c-0.7,0-1.3,0.2-1.7,0.7c-0.4,0.5-0.6,1.2-0.6,2.2c0,1,0.2,1.7,0.7,2.2c0.4,0.5,0.9,0.8,1.6,0.8V542.3z"/>
	<path d="M73.3,541.6c-0.6,0.5-1.4,0.7-2.3,0.7c-1.1,0-2.1-0.4-2.8-1.2c-0.7-0.8-1.1-1.9-1.1-3.2c0-1.4,0.4-2.5,1.1-3.3
		c0.7-0.8,1.7-1.2,2.9-1.2c1,0,1.9,0.3,2.6,0.9c0.4,0.4,0.7,0.9,0.9,1.6l-1.7,0.4c-0.1-0.5-0.3-0.8-0.6-1.1
		c-0.3-0.3-0.7-0.4-1.2-0.4c-0.6,0-1.2,0.2-1.6,0.7c-0.4,0.5-0.6,1.2-0.6,2.2c0,1.1,0.2,1.9,0.6,2.3c0.4,0.5,0.9,0.7,1.5,0.7
		c0.5,0,0.9-0.1,1.2-0.4c0.3-0.3,0.6-0.8,0.7-1.4l1.7,0.5C74.3,540.5,73.9,541.2,73.3,541.6z"/>
	<rect x="63" y="537.1" width="3.2" height="1.7"/>
	<path d="M60.7,541.6c-0.6,0.5-1.4,0.7-2.3,0.7c-1.1,0-2.1-0.4-2.8-1.2c-0.7-0.8-1.1-1.9-1.1-3.2c0-1.4,0.4-2.5,1.1-3.3
		c0.7-0.8,1.7-1.2,2.9-1.2c1.1,0,1.9,0.3,2.6,0.9c0.4,0.4,0.7,0.9,0.9,1.6l-1.7,0.4c-0.1-0.5-0.3-0.8-0.6-1.1
		c-0.3-0.3-0.7-0.4-1.2-0.4c-0.6,0-1.1,0.2-1.6,0.7c-0.4,0.5-0.6,1.2-0.6,2.2c0,1.1,0.2,1.9,0.6,2.3s0.9,0.7,1.5,0.7
		c0.5,0,0.9-0.1,1.2-0.4c0.3-0.3,0.6-0.8,0.7-1.4l1.7,0.5C61.7,540.5,61.3,541.2,60.7,541.6z"/>
	<path d="M50.6,540.7c0.3,0,0.5-0.2,0.6-0.3c0.2-0.2,0.3-0.4,0.3-0.7c0-0.3-0.1-0.5-0.2-0.7c-0.1-0.2-0.3-0.3-0.5-0.4
		c-0.2-0.1-0.8-0.1-1.5-0.1h-1V537H49c0.7,0,1.1,0,1.3,0c0.3,0,0.5-0.1,0.7-0.3s0.3-0.4,0.3-0.7c0-0.3-0.1-0.5-0.2-0.7
		c-0.2-0.2-0.4-0.3-0.7-0.3c-0.2,0-0.7,0-1.5,0h-1v7.2h-1.7v-8.6h3.4c0.7,0,1.2,0,1.5,0.1c0.3,0,0.6,0.2,0.9,0.3
		c0.3,0.2,0.5,0.4,0.6,0.7c0.2,0.3,0.3,0.6,0.3,1c0,0.4-0.1,0.8-0.3,1.1c-0.2,0.3-0.5,0.6-0.9,0.8c0.5,0.1,0.9,0.4,1.2,0.8
		c0.3,0.4,0.4,0.8,0.4,1.3c0,0.4-0.1,0.8-0.3,1.1c-0.2,0.4-0.4,0.7-0.8,0.9c-0.3,0.2-0.7,0.4-1.2,0.4c-0.3,0-1,0-2.1,0.1h-0.8v-1.5
		h1.2C50.1,540.7,50.5,540.7,50.6,540.7z"/>
	<polygon points="41.8,538.8 42.3,540.2 39.3,540.2 39.8,538.8 	"/>
	<polygon points="41.7,533.6 45.2,542.2 43.3,542.2 42.5,540.2 42,538.8 40.8,535.6 39.6,538.8 39.1,540.2 38.4,542.2 36.6,542.2 
		39.9,533.6 	"/>
</g>
</svg>
